<svg id="ball" xmlns="http://www.w3.org/2000/svg" xmlns:xlink="http://www.w3.org/1999/xlink" preserveAspectRatio="xMidYMid" width="43" height="43" viewBox="0 0 43 43">
  <path d="M36.703,6.297 C32.642,2.237 27.243,0.000 21.500,0.000 C15.757,0.000 10.358,2.237 6.297,6.297 C2.236,10.358 0.000,15.757 0.000,21.500 C0.000,27.243 2.236,32.642 6.297,36.703 C10.358,40.763 15.757,43.000 21.500,43.000 C27.243,43.000 32.642,40.763 36.703,36.703 C40.764,32.642 43.000,27.243 43.000,21.500 C43.000,15.757 40.764,10.358 36.703,6.297 ZM1.946,21.500 C1.946,10.717 10.718,1.946 21.500,1.946 C29.842,1.946 36.980,7.198 39.784,14.568 C38.437,14.308 37.062,14.176 35.678,14.176 C29.935,14.176 24.536,16.412 20.475,20.473 C16.414,24.534 14.178,29.933 14.178,35.676 C14.178,37.061 14.310,38.437 14.571,39.785 C7.199,36.982 1.946,29.843 1.946,21.500 ZM16.123,35.676 C16.123,24.894 24.895,16.122 35.678,16.122 C36.911,16.122 38.136,16.236 39.337,16.463 L16.465,39.336 C16.238,38.135 16.123,36.909 16.123,35.676 ZM21.500,41.054 C20.250,41.054 19.028,40.935 17.843,40.710 L40.710,17.842 C40.935,19.027 41.054,20.250 41.054,21.500 C41.054,32.282 32.282,41.054 21.500,41.054 Z"/>
</svg>
